<?xml version="1.0" encoding="UTF-8"?>
<svg version="1.1" xmlns="http://www.w3.org/2000/svg" width="127" height="128">
<path d="M0 0 C2.62895545 0.11584901 5.24616742 0.14533837 7.87744141 0.15283203 C9.49596815 0.18069923 11.11446227 0.21055315 12.73291016 0.24267578 C13.47637695 0.23953369 14.21984375 0.2363916 14.98583984 0.2331543 C17.08056641 0.31298828 17.08056641 0.31298828 20.67041016 1.11767578 C23.00634766 4.10595703 23.00634766 4.10595703 24.67041016 7.11767578 C26.328578 7.80520879 27.99500352 8.47328861 29.67041016 9.11767578 C30.67041016 10.78434245 31.67041016 12.45100911 32.67041016 14.11767578 C33.47478516 14.42705078 34.27916016 14.73642578 35.10791016 15.05517578 C38.70600564 16.54706903 39.65193307 18.83765052 41.67041016 22.11767578 C42.42837891 22.95814453 43.18634766 23.79861328 43.96728516 24.66455078 C47.49703117 28.84478596 49.6244369 33.68889487 51.92041016 38.61767578 C52.58943359 40.0040625 52.58943359 40.0040625 53.27197266 41.41845703 C55.42920498 45.98786732 57.26103501 50.02972757 57.67041016 55.11767578 C57.74469238 55.93026855 57.81897461 56.74286133 57.89550781 57.58007812 C59.11269972 73.03761978 57.66183847 82.25899693 47.67041016 94.11767578 C46.98062861 95.43919901 46.30439878 96.76849802 45.67041016 98.11767578 C42.63107332 100.21377015 40.28194318 100.18930949 36.67041016 100.11767578 C36.59306641 101.60267578 36.59306641 101.60267578 36.51416016 103.11767578 C35.58831425 115.12782787 35.58831425 115.12782787 30.60791016 119.86767578 C29.89505859 120.44001953 29.18220703 121.01236328 28.44775391 121.60205078 C26.39248575 123.09032958 26.39248575 123.09032958 25.67041016 126.11767578 C21.18708893 128.77224474 16.35708561 128.40692714 11.31103516 128.38330078 C10.40722107 128.38521423 9.50340698 128.38712769 8.57220459 128.38909912 C6.66255413 128.39045754 4.75289433 128.38678508 2.84326172 128.37841797 C-0.05571682 128.36776352 -2.95406863 128.37829911 -5.85302734 128.39111328 C-7.71500786 128.38979065 -9.57698799 128.38722613 -11.43896484 128.38330078 C-12.29552673 128.38734924 -13.15208862 128.39139771 -14.03460693 128.39556885 C-19.03361436 128.35732454 -23.55175366 127.79907327 -28.39727783 126.55194092 C-30.51798975 126.0076375 -30.51798975 126.0076375 -33.51708984 126.05517578 C-38.23444994 124.48272242 -39.86823176 120.21993926 -42.32958984 116.11767578 C-42.86841797 115.41771484 -43.40724609 114.71775391 -43.96240234 113.99658203 C-45.60406261 111.74047178 -45.94948668 109.85441857 -46.32958984 107.11767578 C-46.98958984 107.11767578 -47.64958984 107.11767578 -48.32958984 107.11767578 C-48.41208984 106.04517578 -48.49458984 104.97267578 -48.57958984 103.86767578 C-49.39976696 99.7667902 -50.08675461 98.61929154 -53.32958984 96.11767578 C-54.65479487 95.4349944 -55.98771166 94.76697168 -57.32958984 94.11767578 C-58.32958984 93.11767578 -59.32958984 92.11767578 -60.32958984 91.11767578 C-60.97541016 90.92044922 -61.62123047 90.72322266 -62.28662109 90.52001953 C-65.54514774 88.28328709 -65.75261524 84.84771852 -66.51708984 81.18017578 C-66.84328174 79.73341878 -67.17008172 78.28679872 -67.49755859 76.84033203 C-67.77212891 75.61185547 -68.04669922 74.38337891 -68.32958984 73.11767578 C-68.65958984 72.12767578 -68.98958984 71.13767578 -69.32958984 70.11767578 C-70.84236697 57.22187079 -68.26496062 43.30289027 -60.44750977 32.92089844 C-58.2247786 30.1622471 -55.94462571 27.46268893 -53.57299805 24.83081055 C-52.19662848 22.93448515 -51.87086994 21.36977159 -51.32958984 19.11767578 C-50.71083984 18.82892578 -50.09208984 18.54017578 -49.45458984 18.24267578 C-46.36907186 16.60916626 -45.68539112 14.23601872 -44.32958984 11.11767578 C-42.67958984 11.11767578 -41.02958984 11.11767578 -39.32958984 11.11767578 C-39.32958984 10.45767578 -39.32958984 9.79767578 -39.32958984 9.11767578 C-35.86458984 8.62267578 -35.86458984 8.62267578 -32.32958984 8.11767578 C-32.32958984 7.45767578 -32.32958984 6.79767578 -32.32958984 6.11767578 C-21.4649128 -0.01767125 -12.28010638 -0.62124201 0 0 Z " fill="#D6481B" transform="translate(69.32958984375,-0.11767578125)"/>
<path d="M0 0 C1.25232422 0.01514648 2.50464844 0.03029297 3.79492188 0.04589844 C15.62528253 0.45704999 28.06225448 2.28907784 38.1875 8.875 C41.50530747 12.71073414 42.65404202 15.87129919 43.1875 20.875 C43.27902344 21.63425781 43.37054688 22.39351562 43.46484375 23.17578125 C43.5625 25.1875 43.5625 25.1875 43.1875 28.875 C43.1875 30.03 43.1875 31.185 43.1875 32.375 C41.88565132 36.93147039 39.47808325 38.97269353 36 42.078125 C33.94772691 43.84251702 33.94772691 43.84251702 33.1875 46.875 C28.70417877 49.52956896 23.87417545 49.16425136 18.828125 49.140625 C17.47240387 49.14349518 17.47240387 49.14349518 16.08929443 49.14642334 C14.17964397 49.14778176 12.26998417 49.1441093 10.36035156 49.13574219 C7.46137302 49.12508774 4.56302122 49.13562333 1.6640625 49.1484375 C-0.19791802 49.14711487 -2.05989815 49.14455034 -3.921875 49.140625 C-4.77843689 49.14467346 -5.63499878 49.14872192 -6.51751709 49.15289307 C-11.51652452 49.11464876 -16.03466381 48.55639749 -20.88018799 47.30926514 C-23.00089991 46.76496172 -23.00089991 46.76496172 -26 46.8125 C-30.7173601 45.24004663 -32.35114192 40.97726347 -34.8125 36.875 C-35.35132813 36.16472656 -35.89015625 35.45445313 -36.4453125 34.72265625 C-39.54354682 30.53561386 -39.29142608 24.89414537 -38.8125 19.875 C-37.57341141 14.74163298 -35.74617817 12.51378988 -31.375 9.8125 C-30.52010986 9.36132812 -29.66521973 8.91015625 -28.78442383 8.4453125 C-26.87835765 7.43818052 -24.99087195 6.39457042 -23.12988281 5.30639648 C-15.32122275 0.95774308 -8.8770689 -0.15123184 0 0 Z " fill="#F0D58F" transform="translate(61.8125,79.125)"/>
<path d="M0 0 C4.96931769 0.37918488 9.93783226 0.30341522 14.91796875 0.22265625 C15.41296875 1.70765625 15.41296875 1.70765625 15.91796875 3.22265625 C16.91699219 3.21105469 17.91601562 3.19945313 18.9453125 3.1875 C20.23566406 3.17847656 21.52601562 3.16945313 22.85546875 3.16015625 C24.14324219 3.14855469 25.43101563 3.13695313 26.7578125 3.125 C29.91796875 3.22265625 29.91796875 3.22265625 30.91796875 4.22265625 C30.66923516 10.40990431 28.57807103 13.77552499 24.91796875 18.47265625 C21.3517312 23.02174897 21.3517312 23.02174897 18.91796875 28.22265625 C15.46949492 30.74269482 12.0522288 30.38166625 7.91796875 30.22265625 C7.24709755 28.59938755 6.58139846 26.97398047 5.91796875 25.34765625 C5.54671875 24.44273438 5.17546875 23.5378125 4.79296875 22.60546875 C3.91796875 20.22265625 3.91796875 20.22265625 3.91796875 18.22265625 C2.72171875 17.99578125 1.52546875 17.76890625 0.29296875 17.53515625 C-2.60427905 16.92824043 -5.08400805 16.22174234 -7.77734375 14.9765625 C-20.82134327 9.08841438 -39.82244249 7.80704845 -53.3046875 12.8828125 C-57.16507781 14.65474612 -60.60156759 16.79298226 -64.08203125 19.22265625 C-65.72751953 20.24359375 -65.72751953 20.24359375 -67.40625 21.28515625 C-70.64300628 23.6288513 -71.21139827 25.39187115 -72.08203125 29.22265625 C-72.74203125 29.22265625 -73.40203125 29.22265625 -74.08203125 29.22265625 C-74.08203125 31.86265625 -74.08203125 34.50265625 -74.08203125 37.22265625 C-74.41203125 37.22265625 -74.74203125 37.22265625 -75.08203125 37.22265625 C-75.16453125 36.15015625 -75.24703125 35.07765625 -75.33203125 33.97265625 C-76.15220837 29.87177067 -76.83919601 28.724272 -80.08203125 26.22265625 C-81.40723628 25.53997487 -82.74015307 24.87195215 -84.08203125 24.22265625 C-85.08203125 23.22265625 -86.08203125 22.22265625 -87.08203125 21.22265625 C-88.06236328 20.86300781 -88.06236328 20.86300781 -89.0625 20.49609375 C-92.01690066 18.63316412 -92.13082018 16.68838166 -92.89453125 13.34765625 C-93.14847656 12.29835938 -93.40242188 11.2490625 -93.6640625 10.16796875 C-94.08203125 7.22265625 -94.08203125 7.22265625 -93.08203125 3.22265625 C-92.42203125 6.19265625 -91.76203125 9.16265625 -91.08203125 12.22265625 C-86.79203125 12.22265625 -82.50203125 12.22265625 -78.08203125 12.22265625 C-77.62828125 10.75828125 -77.17453125 9.29390625 -76.70703125 7.78515625 C-75.93359375 5.2890625 -75.93359375 5.2890625 -75.08203125 3.22265625 C-73.08203125 2.22265625 -73.08203125 2.22265625 -69.40625 3.30859375 C-63.11884991 4.80111442 -57.21233031 3.40489245 -50.9828186 2.23565674 C-33.80867708 -0.9552716 -17.42195102 -1.63402711 0 0 Z " fill="#C33E17" transform="translate(96.08203125,69.77734375)"/>
<path d="M0 0 C0.85722656 0.22816406 1.71445312 0.45632812 2.59765625 0.69140625 C8.28142253 2.70009069 11.21176976 4.63391955 14.0625 10 C14.371875 10.66 14.68125 11.32 15 12 C15.34289062 12.60070313 15.68578125 13.20140625 16.0390625 13.8203125 C18.39282521 19.15933524 19.24858275 25.27495664 18 31 C14.9178919 37.63043079 9.5674989 43.544495 2.7734375 46.31640625 C-0.21620351 46.85756912 -2.96758413 47.00884086 -6 47 C-7.216875 47.2475 -8.43375 47.495 -9.6875 47.75 C-15.58412077 46.41491605 -18.71315854 41.84777389 -22 37 C-26.04365055 28.7397085 -27.56395265 20.40109229 -24.9921875 11.51953125 C-22.88612327 6.88118296 -19.09054299 5.17720562 -14.6875 3 C-13.56698242 2.39091797 -13.56698242 2.39091797 -12.42382812 1.76953125 C-7.88307239 -0.56662578 -5.07890836 -1.55228608 0 0 Z " fill="#DBDAD9" transform="translate(61,4)"/>
<path d="M0 0 C1.82512208 3.7022496 3.6328111 7.4127527 5.4375 11.125 C6.2119043 12.69507813 6.2119043 12.69507813 7.00195312 14.296875 C7.49501953 15.31523438 7.98808594 16.33359375 8.49609375 17.3828125 C8.95169678 18.31496582 9.4072998 19.24711914 9.87670898 20.20751953 C11.66694667 24.65801696 12.130297 28.97663819 12.09765625 33.7421875 C12.09443359 34.58007812 12.09121094 35.41796875 12.08789062 36.28125 C12.07951172 37.1371875 12.07113281 37.993125 12.0625 38.875 C12.05798828 39.75414062 12.05347656 40.63328125 12.04882812 41.5390625 C12.03712337 43.69273803 12.01919069 45.84637817 12 48 C-0.89632666 48.73062193 -0.89632666 48.73062193 -5.9296875 44.58984375 C-8.16105796 41.81343363 -10.13642707 39.03330963 -12 36 C-12.66 35.01 -13.32 34.02 -14 33 C-14.43412519 29.64044987 -14.32415489 26.2595789 -14.3125 22.875 C-14.32861328 21.96234375 -14.34472656 21.0496875 -14.36132812 20.109375 C-14.36557161 14.15152167 -13.91927397 8.32051849 -11 3 C-7.57743542 0.39474092 -4.26814063 0 0 0 Z " fill="#DBDAD8" transform="translate(115,26)"/>
<path d="M0 0 C9.22959229 11.93029685 11.98145251 27.14437793 11 42 C10.06888008 45.58959782 8.97242895 47.83215957 7 51 C2.71 51 -1.58 51 -6 51 C-6.66 48.03 -7.32 45.06 -8 42 C-8.66 42 -9.32 42 -10 42 C-13.35238254 31.94285239 -10.36212815 18.81433092 -7 9 C-5.03595508 5.53032749 -2.90860147 2.72068621 0 0 Z " fill="#DBDAD8" transform="translate(11,31)"/>
<path d="M0 0 C1.25087402 0.011521 2.50174805 0.02304199 3.79052734 0.03491211 C12.38878184 0.31489843 20.16959786 1.67228293 28.3125 4.4375 C29.2713208 4.75928223 30.2301416 5.08106445 31.21801758 5.41259766 C35.4240682 7.03644533 38.3896683 8.25624887 40.3671875 12.46484375 C41.1875 15.875 41.1875 15.875 40.1875 18.875 C39.72988281 18.12863281 39.27226563 17.38226563 38.80078125 16.61328125 C35.16016257 12.79852237 31.32629966 11.64874077 26.375 10.0625 C25.43664307 9.75699219 24.49828613 9.45148438 23.53149414 9.13671875 C15.4675674 6.66927971 8.6174077 6.1544107 0.1875 6.875 C-0.81023438 6.87628906 -1.80796875 6.87757812 -2.8359375 6.87890625 C-11.99084083 7.06298608 -22.71296567 9.9811762 -29.48291016 16.47802734 C-31.9228653 19.26067717 -34.04749769 22.19445526 -36.08984375 25.27734375 C-36.94255859 26.56318359 -36.94255859 26.56318359 -37.8125 27.875 C-38.1425 27.875 -38.4725 27.875 -38.8125 27.875 C-39.11734848 22.08287879 -39.00056813 17.93840232 -35.8125 12.875 C-33.56595294 11.12768562 -31.30147781 9.77369835 -28.78442383 8.4453125 C-26.87835765 7.43818052 -24.99087195 6.39457042 -23.12988281 5.30639648 C-15.31987745 0.95699388 -8.87790898 -0.14826528 0 0 Z " fill="#AA915F" transform="translate(61.8125,79.125)"/>
<path d="M0 0 C0.33 0 0.66 0 1 0 C1.02578125 1.05058594 1.0515625 2.10117187 1.078125 3.18359375 C1.34415001 10.50843987 1.58863497 16.81463671 5.16015625 23.3984375 C6 25 6 25 6 27 C6.92232422 27.09087891 6.92232422 27.09087891 7.86328125 27.18359375 C8.67152344 27.26738281 9.47976563 27.35117188 10.3125 27.4375 C11.11300781 27.51871094 11.91351563 27.59992188 12.73828125 27.68359375 C15 28 15 28 18 29 C18 26.69 18 24.38 18 22 C18.33 22 18.66 22 19 22 C19.49692664 28.83274127 18.06269918 32.87460164 15 39 C10.71 39 6.42 39 2 39 C1.34 36.03 0.68 33.06 0 30 C-0.66 30 -1.32 30 -2 30 C-5.20076539 20.39770384 -2.02279497 9.59623568 0 0 Z " fill="#C7A19A" transform="translate(3,43)"/>
<path d="M0 0 C1.65 0 3.3 0 5 0 C6.03026944 6.69675136 6.10152799 13.2314676 6 20 C4.35 20 2.7 20 1 20 C0.11722245 15.48184719 -0.10589503 11.22487306 -0.0625 6.625 C-0.05347656 5.37976563 -0.04445312 4.13453125 -0.03515625 2.8515625 C-0.02355469 1.91054687 -0.01195312 0.96953125 0 0 Z " fill="#2A2318" transform="translate(48,96)"/>
<path d="M0 0 C1.65 0 3.3 0 5 0 C5 6.6 5 13.2 5 20 C3.35 20 1.7 20 0 20 C0 13.4 0 6.8 0 0 Z " fill="#201B12" transform="translate(75,96)"/>
<path d="M0 0 C0.33 0 0.66 0 1 0 C1.33 5.61 1.66 11.22 2 17 C-2.62 17 -7.24 17 -12 17 C-12.33 16.01 -12.66 15.02 -13 14 C-10.36 13.67 -7.72 13.34 -5 13 C-4.72285156 12.14535156 -4.44570312 11.29070312 -4.16015625 10.41015625 C-3.79792969 9.30542969 -3.43570313 8.20070313 -3.0625 7.0625 C-2.70285156 5.96035156 -2.34320313 4.85820313 -1.97265625 3.72265625 C-1 1 -1 1 0 0 Z " fill="#C7A49E" transform="translate(124,56)"/>
<path d="M0 0 C2.10209857 3.15314785 2.2434761 3.86103081 2.1953125 7.44921875 C2.18886719 8.29677734 2.18242188 9.14433594 2.17578125 10.01757812 C2.15902344 10.89865234 2.14226562 11.77972656 2.125 12.6875 C2.11597656 13.58017578 2.10695313 14.47285156 2.09765625 15.39257812 C2.07409748 17.59532314 2.04120329 19.79752588 2 22 C1.67 22 1.34 22 1 22 C0.63702296 19.08418447 0.28431765 16.16774334 -0.0625 13.25 C-0.16626953 12.425 -0.27003906 11.6 -0.37695312 10.75 C-0.47041016 9.95078125 -0.56386719 9.1515625 -0.66015625 8.328125 C-0.74918213 7.5949707 -0.83820801 6.86181641 -0.92993164 6.10644531 C-1.00408147 3.87729995 -0.64094299 2.12666985 0 0 Z " fill="#D4C4C0" transform="translate(125,52)"/>
<path d="M0 0 C0.99 0.495 0.99 0.495 2 1 C1.67 3.31 1.34 5.62 1 8 C0.67 8 0.34 8 0 8 C0 5.36 0 2.72 0 0 Z " fill="#EABE7D" transform="translate(106,100)"/>
<path d="M0 0 C0.33 0 0.66 0 1 0 C1 2.31 1 4.62 1 7 C0.67 7 0.34 7 0 7 C0 4.69 0 2.38 0 0 Z " fill="#F2D58F" transform="translate(105,108)"/>
<path d="M0 0 C0.33 0 0.66 0 1 0 C1 1.65 1 3.3 1 5 C0.67 5 0.34 5 0 5 C0 3.35 0 1.7 0 0 Z " fill="#F2D690" transform="translate(22,107)"/>
<path d="M0 0 C0.33 0 0.66 0 1 0 C1 1.65 1 3.3 1 5 C0.67 5 0.34 5 0 5 C0 3.35 0 1.7 0 0 Z " fill="#C8A098" transform="translate(0,48)"/>
<path d="M0 0 C0.33 0 0.66 0 1 0 C1 1.65 1 3.3 1 5 C0.67 5 0.34 5 0 5 C0 3.35 0 1.7 0 0 Z " fill="#C7A49E" transform="translate(1,43)"/>
<path d="M0 0 C1 4 1 4 1 4 Z " fill="#C45F43" transform="translate(2,81)"/>
<path d="M0 0 C1 4 1 4 1 4 Z " fill="#C6836C" transform="translate(1,77)"/>
<path d="M0 0 C1 4 1 4 1 4 Z " fill="#C89382" transform="translate(0,73)"/>
<path d="M0 0 C4 1 4 1 4 1 Z " fill="#D5471A" transform="translate(84,0)"/>
<path d="M0 0 C3 1 3 1 3 1 Z " fill="#F2D690" transform="translate(42,127)"/>
<path d="M0 0 C3 1 3 1 3 1 Z " fill="#F2D690" transform="translate(39,126)"/>
<path d="" fill="#E8EAEA" transform="translate(0,0)"/>
<path d="" fill="#DDDAD6" transform="translate(0,0)"/>
<path d="" fill="#F2D690" transform="translate(0,0)"/>
<path d="" fill="#F1D68F" transform="translate(0,0)"/>
<path d="" fill="#C23C16" transform="translate(0,0)"/>
<path d="" fill="#C13C16" transform="translate(0,0)"/>
<path d="" fill="#C23C16" transform="translate(0,0)"/>
<path d="" fill="#C33D16" transform="translate(0,0)"/>
<path d="" fill="#C13C16" transform="translate(0,0)"/>
<path d="" fill="#DCD5D2" transform="translate(0,0)"/>
<path d="" fill="#DBDAD9" transform="translate(0,0)"/>
<path d="" fill="#DBDFE0" transform="translate(0,0)"/>
<path d="" fill="#DDE8E5" transform="translate(0,0)"/>
<path d="" fill="#DBD4D1" transform="translate(0,0)"/>
<path d="" fill="#DACBC5" transform="translate(0,0)"/>
<path d="" fill="#DBCEC9" transform="translate(0,0)"/>
<path d="" fill="#DBD7D6" transform="translate(0,0)"/>
<path d="" fill="#DBD0CB" transform="translate(0,0)"/>
<path d="" fill="#DBD2CF" transform="translate(0,0)"/>
<path d="" fill="#DCDAD9" transform="translate(0,0)"/>
<path d="" fill="#D77555" transform="translate(0,0)"/>
<path d="" fill="#DCE2E1" transform="translate(0,0)"/>
<path d="" fill="#D6481A" transform="translate(0,0)"/>
<path d="" fill="#D6481A" transform="translate(0,0)"/>
<path d="M0 0 C2 1 2 1 2 1 Z " fill="#D6481A" transform="translate(28,10)"/>
<path d="M0 0 C2 1 2 1 2 1 Z " fill="#D6481A" transform="translate(35,7)"/>
<path d="" fill="#F2D690" transform="translate(0,0)"/>
<path d="" fill="#F2D690" transform="translate(0,0)"/>
<path d="" fill="#F2D690" transform="translate(0,0)"/>
<path d="" fill="#F2D690" transform="translate(0,0)"/>
<path d="" fill="#F2D690" transform="translate(0,0)"/>
<path d="" fill="#F2D690" transform="translate(0,0)"/>
<path d="" fill="#F2D690" transform="translate(0,0)"/>
<path d="" fill="#F2D690" transform="translate(0,0)"/>
<path d="" fill="#F2D690" transform="translate(0,0)"/>
<path d="" fill="#F2D690" transform="translate(0,0)"/>
<path d="" fill="#F2D690" transform="translate(0,0)"/>
<path d="" fill="#F2D690" transform="translate(0,0)"/>
<path d="" fill="#F2D690" transform="translate(0,0)"/>
<path d="" fill="#F2D690" transform="translate(0,0)"/>
<path d="" fill="#F2D690" transform="translate(0,0)"/>
<path d="" fill="#C33D16" transform="translate(0,0)"/>
<path d="" fill="#C43D16" transform="translate(0,0)"/>
<path d="" fill="#C43E16" transform="translate(0,0)"/>
<path d="" fill="#C23C16" transform="translate(0,0)"/>
<path d="" fill="#C23C16" transform="translate(0,0)"/>
<path d="" fill="#C33D16" transform="translate(0,0)"/>
<path d="" fill="#C23C16" transform="translate(0,0)"/>
<path d="" fill="#C53E16" transform="translate(0,0)"/>
<path d="" fill="#C23C16" transform="translate(0,0)"/>
<path d="" fill="#C23C16" transform="translate(0,0)"/>
<path d="" fill="#DCD6D3" transform="translate(0,0)"/>
<path d="" fill="#DCD1CD" transform="translate(0,0)"/>
<path d="" fill="#DCD7D4" transform="translate(0,0)"/>
<path d="" fill="#DBD7D5" transform="translate(0,0)"/>
<path d="" fill="#DAAC9D" transform="translate(0,0)"/>
<path d="" fill="#D87A5A" transform="translate(0,0)"/>
<path d="" fill="#D6481A" transform="translate(0,0)"/>
<path d="" fill="#D6481A" transform="translate(0,0)"/>
<path d="" fill="#D30000" transform="translate(0,0)"/>
<path d="" fill="#D8876D" transform="translate(0,0)"/>
<path d="" fill="#D87C5E" transform="translate(0,0)"/>
<path d="" fill="#D6481A" transform="translate(0,0)"/>
<path d="" fill="#D6481A" transform="translate(0,0)"/>
<path d="" fill="#D6481A" transform="translate(0,0)"/>
<path d="" fill="#D6481A" transform="translate(0,0)"/>
<path d="" fill="#D6481A" transform="translate(0,0)"/>
<path d="" fill="#D6481A" transform="translate(0,0)"/>
<path d="" fill="#D6481A" transform="translate(0,0)"/>
<path d="" fill="#D6481A" transform="translate(0,0)"/>
<path d="" fill="#D6481A" transform="translate(0,0)"/>
<path d="" fill="#D6481A" transform="translate(0,0)"/>
<path d="" fill="#D6481A" transform="translate(0,0)"/>
<path d="" fill="#D6481A" transform="translate(0,0)"/>
<path d="" fill="#D6481A" transform="translate(0,0)"/>
<path d="" fill="#D6481A" transform="translate(0,0)"/>
<path d="" fill="#D6481A" transform="translate(0,0)"/>
<path d="" fill="#D6481A" transform="translate(0,0)"/>
<path d="" fill="#D6481A" transform="translate(0,0)"/>
<path d="" fill="#D6481A" transform="translate(0,0)"/>
</svg>
